<svg width="24" height="24" viewBox="0 0 24 24" fill="none" xmlns="http://www.w3.org/2000/svg">
<path d="M7.50011 18.2343C7.26171 18.2346 7.03141 18.1479 6.8523 17.9906L0.852297 12.7406C0.74677 12.6482 0.662205 12.5343 0.604268 12.4066C0.54633 12.2789 0.516357 12.1402 0.516357 12C0.516357 11.8597 0.54633 11.7211 0.604268 11.5933C0.662205 11.4656 0.74677 11.3517 0.852297 11.2593L6.8523 6.00934C7.04878 5.8374 7.30553 5.75057 7.56604 5.76793C7.82656 5.78529 8.0695 5.90543 8.24144 6.10192C8.41337 6.29841 8.50021 6.55515 8.48285 6.81566C8.46549 7.07618 8.34535 7.31912 8.14886 7.49106L2.99495 12L8.14839 16.5089C8.29922 16.6407 8.40623 16.8155 8.45511 17.0098C8.504 17.2041 8.49244 17.4086 8.42197 17.5962C8.35151 17.7837 8.2255 17.9453 8.06078 18.0593C7.89605 18.1734 7.70045 18.2344 7.50011 18.2343Z" fill="white"/>
<path d="M16.5 18.2343C16.2996 18.2345 16.1039 18.1735 15.9392 18.0595C15.7744 17.9455 15.6483 17.784 15.5777 17.5964C15.5072 17.4088 15.4956 17.2042 15.5445 17.0099C15.5934 16.8155 15.7004 16.6408 15.8512 16.5089L21.0052 12L15.8517 7.49106C15.6552 7.31912 15.5351 7.07618 15.5177 6.81566C15.5004 6.55515 15.5872 6.29841 15.7591 6.10192C15.9311 5.90543 16.174 5.78529 16.4345 5.76793C16.695 5.75057 16.9518 5.8374 17.1483 6.00934L23.1483 11.2593C23.2538 11.3517 23.3384 11.4656 23.3963 11.5933C23.4543 11.7211 23.4842 11.8597 23.4842 12C23.4842 12.1402 23.4543 12.2789 23.3963 12.4066C23.3384 12.5343 23.2538 12.6482 23.1483 12.7406L17.1483 17.9906C16.9691 18.1481 16.7386 18.2348 16.5 18.2343Z" fill="white"/>
<path d="M9.75003 20.4844C9.59673 20.4843 9.44556 20.4485 9.30856 20.3797C9.17156 20.3109 9.05252 20.2111 8.96092 20.0882C8.86932 19.9653 8.8077 19.8226 8.78096 19.6717C8.75422 19.5207 8.7631 19.3656 8.8069 19.2187L13.3069 4.21873C13.3408 4.09144 13.3999 3.97225 13.4807 3.86822C13.5615 3.76419 13.6624 3.67744 13.7773 3.61309C13.8922 3.54875 14.0189 3.50813 14.1498 3.49364C14.2808 3.47915 14.4133 3.49109 14.5395 3.52874C14.6657 3.56639 14.7831 3.629 14.8847 3.71284C14.9863 3.79669 15.07 3.90007 15.1309 4.01687C15.1919 4.13366 15.2287 4.26149 15.2393 4.39279C15.2499 4.52408 15.2341 4.65617 15.1927 4.78123L10.6927 19.7812C10.6322 19.9843 10.5077 20.1624 10.3379 20.289C10.1681 20.4157 9.9619 20.4842 9.75003 20.4844Z" fill="white"/>
</svg>
