<svg width="24" height="24" viewBox="0 0 24 24" fill="none" xmlns="http://www.w3.org/2000/svg">
<path d="M21.8906 8.24998C21.6599 8.24248 21.4308 8.29203 21.2238 8.39424C21.0167 8.49645 20.8381 8.64815 20.7038 8.83592C20.6923 8.85226 20.676 8.86454 20.6572 8.87098C20.6383 8.87742 20.6179 8.87768 20.5989 8.87172C20.5798 8.86576 20.5632 8.8539 20.5514 8.83785C20.5396 8.82181 20.5332 8.80241 20.5331 8.78248V7.06451C20.5331 6.09185 19.7672 5.27342 18.795 5.25045C18.5574 5.24444 18.3209 5.28606 18.0996 5.37286C17.8783 5.45965 17.6766 5.58986 17.5064 5.75582C17.3362 5.92177 17.201 6.12012 17.1086 6.33916C17.0163 6.5582 16.9687 6.79351 16.9688 7.03123V10.875C16.9688 10.8998 16.9589 10.9237 16.9413 10.9413C16.9237 10.9589 16.8999 10.9687 16.875 10.9687H7.125C7.10014 10.9687 7.07629 10.9589 7.05871 10.9413C7.04113 10.9237 7.03125 10.8998 7.03125 10.875V7.06451C7.03125 6.09185 6.26531 5.27342 5.29313 5.25045C5.05564 5.2447 4.81941 5.2865 4.59833 5.37341C4.37725 5.46032 4.17578 5.59057 4.00579 5.7565C3.83579 5.92243 3.70071 6.12069 3.60848 6.33961C3.51625 6.55852 3.46874 6.79368 3.46875 7.03123V8.78342C3.4687 8.80335 3.46231 8.82274 3.45049 8.83879C3.43867 8.85484 3.42204 8.8667 3.40302 8.87266C3.384 8.87862 3.36358 8.87836 3.34471 8.87192C3.32585 8.86548 3.30953 8.8532 3.29813 8.83685C3.16368 8.64865 2.98481 8.49659 2.77741 8.3942C2.57002 8.29182 2.34054 8.24227 2.10938 8.24998C1.34531 8.27388 0.75 8.92076 0.75 9.68529V14.3128C0.75 15.0773 1.34719 15.7242 2.10938 15.7481C2.34014 15.7556 2.56919 15.7061 2.77623 15.6038C2.98326 15.5016 3.16188 15.3499 3.29625 15.1622C3.30738 15.1449 3.32388 15.1317 3.34322 15.1248C3.36255 15.1178 3.38365 15.1173 3.40325 15.1235C3.42286 15.1297 3.43989 15.1421 3.45173 15.159C3.46356 15.1758 3.46954 15.196 3.46875 15.2165V16.9354C3.46875 17.9062 4.23469 18.7265 5.20687 18.75C5.4444 18.7557 5.68067 18.7139 5.90178 18.627C6.12289 18.54 6.32438 18.4097 6.49438 18.2438C6.66438 18.0778 6.79946 17.8795 6.89166 17.6605C6.98386 17.4415 7.03132 17.2063 7.03125 16.9687V13.125C7.03125 13.1001 7.04113 13.0763 7.05871 13.0587C7.07629 13.0411 7.10014 13.0312 7.125 13.0312H16.875C16.8999 13.0312 16.9237 13.0411 16.9413 13.0587C16.9589 13.0763 16.9688 13.1001 16.9688 13.125V16.9354C16.9688 17.9081 17.7347 18.7265 18.7069 18.7495C18.9444 18.7553 19.1806 18.7135 19.4017 18.6265C19.6228 18.5396 19.8242 18.4094 19.9942 18.2435C20.1642 18.0775 20.2993 17.8793 20.3915 17.6603C20.4837 17.4414 20.5313 17.2063 20.5312 16.9687V15.2165C20.5313 15.1966 20.5377 15.1772 20.5495 15.1612C20.5613 15.1451 20.578 15.1333 20.597 15.1273C20.616 15.1213 20.6364 15.1216 20.6553 15.128C20.6741 15.1345 20.6905 15.1468 20.7019 15.1631C20.8363 15.3513 21.0152 15.5034 21.2226 15.6058C21.43 15.7081 21.6595 15.7577 21.8906 15.75C22.6547 15.7261 23.25 15.0792 23.25 14.3147V9.68623C23.25 8.9217 22.6528 8.27482 21.8906 8.24998Z" fill="white"/>
</svg>
