<svg width="24" height="24" viewBox="0 0 24 24" fill="none" xmlns="http://www.w3.org/2000/svg">
<path d="M11.9999 7.50001C12.7499 4.53938 15.5825 3.02766 21.7499 3.00001C21.8485 2.99963 21.9462 3.01878 22.0373 3.05634C22.1285 3.0939 22.2113 3.14913 22.281 3.21885C22.3508 3.28856 22.406 3.37139 22.4436 3.46255C22.4811 3.55372 22.5003 3.65141 22.4999 3.75001V17.25C22.4999 17.4489 22.4209 17.6397 22.2802 17.7803C22.1396 17.921 21.9488 18 21.7499 18C15.7499 18 13.4319 19.2098 11.9999 21C10.5763 19.2188 8.24988 18 2.24988 18C1.78676 18 1.49988 17.6227 1.49988 17.1595V3.75001C1.49951 3.65141 1.51866 3.55372 1.55622 3.46255C1.59378 3.37139 1.64901 3.28856 1.71872 3.21885C1.78844 3.14913 1.87127 3.0939 1.96243 3.05634C2.05359 3.01878 2.15129 2.99963 2.24988 3.00001C8.41723 3.02766 11.2499 4.53938 11.9999 7.50001Z" stroke="white" stroke-width="2" stroke-linecap="round" stroke-linejoin="round"/>
<path d="M12 7.5V21" stroke="white" stroke-width="2" stroke-linecap="round" stroke-linejoin="round"/>
</svg>
